<?xml version="1.0" standalone="no"?>
<!DOCTYPE svg PUBLIC "-//W3C//DTD SVG 20010904//EN"
 "http://www.w3.org/TR/2001/REC-SVG-20010904/DTD/svg10.dtd">
<svg version="1.0" xmlns="http://www.w3.org/2000/svg"
 width="250.000000pt" height="250.000000pt" viewBox="0 0 250.000000 250.000000"
 preserveAspectRatio="xMidYMid meet">
<metadata>
Created by potrace 1.11, written by Peter Selinger 2001-2013
</metadata>
<g transform="translate(0.000000,250.000000) scale(0.100000,-0.100000)"
fill="#000000" stroke="none">
<path d="M1193 1949 c4 -16 3 -18 -8 -9 -9 8 -15 8 -20 0 -3 -5 -3 -10 2 -10
4 -1 -3 -8 -17 -16 -18 -11 -20 -14 -5 -10 19 6 19 5 3 -8 -22 -16 -23 -26 -3
-26 9 0 19 -10 24 -22 8 -21 8 -21 15 6 4 16 9 26 12 23 3 -2 0 -24 -5 -48 -6
-24 -12 -57 -14 -72 -2 -16 -9 -32 -15 -36 -7 -4 -28 -88 -47 -187 -34 -176
-34 -179 -15 -198 18 -19 19 -19 56 14 106 92 264 98 309 10 8 -16 15 -35 15
-42 0 -7 -6 -2 -13 12 -46 92 -211 93 -302 2 -33 -33 -14 -43 24 -13 44 35 78
51 118 54 57 5 95 -8 140 -50 38 -35 40 -41 36 -82 -11 -108 -86 -227 -157
-251 -54 -18 -75 -20 -70 -7 2 7 -9 18 -26 25 -43 20 -64 64 -56 123 11 79
-16 72 -30 -7 -11 -59 33 -134 77 -134 11 0 19 -5 19 -10 0 -11 -41 -4 -70 10
-50 26 -67 91 -46 183 l8 38 -90 -46 c-89 -44 -90 -45 -85 -77 11 -73 73 -136
157 -160 62 -17 203 -14 267 7 161 53 257 185 247 340 -3 51 -10 73 -33 107
-59 85 -207 127 -321 93 l-45 -13 6 51 c4 29 8 53 8 53 1 1 72 4 157 7 85 2
172 10 194 17 52 16 114 81 160 168 38 74 58 90 37 31 -16 -46 -14 -52 9 -29
24 24 34 25 56 3 16 -16 16 -15 12 21 -4 33 -3 36 9 20 9 -12 13 -14 13 -4 0
7 -8 22 -17 33 -15 17 -15 19 -3 15 11 -4 16 0 16 13 0 19 -7 23 -36 20 -8 -1
-3 6 13 16 15 10 27 21 27 25 0 13 -28 9 -43 -7 -13 -12 -16 -12 -22 8 -4 14
-8 17 -12 9 -4 -10 -8 -10 -19 -1 -8 6 -14 8 -14 5 0 -4 -9 -2 -19 3 -15 9
-20 7 -24 -10 -3 -11 -9 -19 -14 -18 -4 1 -17 1 -28 0 -15 -1 -17 -3 -6 -10 7
-5 10 -14 7 -20 -7 -11 2 -14 39 -12 14 0 15 -1 5 -5 -17 -7 -40 -34 -40 -47
0 -11 43 -5 52 8 4 5 10 7 13 3 10 -9 -44 -102 -84 -146 -67 -73 -107 -83
-316 -83 l-144 0 -12 -74 c-6 -41 -18 -80 -25 -86 -18 -15 -18 -5 2 99 l17 82
151 1 c168 1 183 2 243 25 49 18 81 57 85 102 4 59 -67 99 -92 51 -13 -24 3
-51 26 -42 17 6 19 -13 2 -23 -16 -10 -395 -12 -411 -2 -7 4 -8 8 -3 8 5 0 3
7 -4 15 -10 11 -9 26 0 67 11 44 14 49 21 30 10 -27 29 -29 29 -2 0 12 5 17
14 14 8 -3 17 0 22 7 4 7 2 15 -4 17 -7 2 -12 11 -12 20 0 10 -9 23 -21 30
-12 8 -18 9 -15 3 4 -7 1 -8 -8 -5 -9 3 -16 12 -16 20 0 8 -5 14 -11 14 -7 0
-9 -9 -6 -21z"/>
<path d="M785 1733 c-41 -6 -61 -26 -107 -111 -33 -60 -43 -71 -54 -61 -8 7
-12 14 -10 17 3 2 -1 11 -9 19 -11 10 -12 19 -5 33 15 28 12 37 -5 14 -17 -22
-20 -12 -4 19 10 22 10 22 -6 2 -9 -11 -20 -19 -24 -18 -4 1 -8 -8 -8 -20 -1
-12 -6 -42 -12 -67 -7 -32 -6 -49 2 -60 11 -13 10 -13 -6 -1 -10 8 -17 21 -16
30 3 33 -1 52 -11 46 -5 -3 -8 7 -5 25 4 31 -17 43 -29 18 -4 -7 -4 5 -2 27 5
39 5 39 -10 15 l-14 -25 6 29 c7 27 6 28 -13 11 -13 -11 -19 -25 -16 -39 5
-21 5 -21 -12 -1 l-17 20 7 -20 c6 -18 4 -17 -16 3 -17 19 -23 21 -30 10 -11
-17 -12 -51 -1 -44 5 3 9 -2 9 -10 0 -10 -4 -11 -11 -4 -17 17 -26 11 -26 -16
0 -14 4 -22 10 -19 5 3 7 0 4 -8 -3 -8 2 -22 12 -31 21 -21 12 -31 -15 -17
-16 9 -22 8 -30 -6 -6 -10 -11 -12 -11 -5 0 6 -5 12 -11 12 -5 0 -7 -5 -4 -11
4 -6 0 -9 -11 -7 -12 2 -19 -3 -19 -12 0 -9 11 -16 25 -18 54 -6 73 -13 63
-23 -6 -6 -22 -12 -36 -13 -27 -3 -85 -51 -74 -62 3 -4 13 -1 22 6 13 11 14
10 9 -5 -6 -15 -4 -16 14 -6 14 7 22 8 22 2 0 -6 7 -8 15 -5 8 4 15 1 15 -6 0
-6 5 -8 10 -5 6 3 10 1 10 -5 0 -7 8 -9 21 -5 13 5 19 3 15 -3 -3 -6 23 -8 71
-6 51 2 72 0 63 -6 -8 -6 -23 -10 -32 -10 -22 0 -96 -38 -122 -62 -11 -10 -23
-18 -28 -18 -4 0 -8 -5 -8 -12 0 -7 -13 -26 -29 -43 -29 -30 -56 -126 -32
-110 6 3 11 0 12 -7 0 -7 6 -2 12 11 6 13 36 49 65 80 30 31 51 50 47 42 -6
-10 -4 -12 6 -5 8 4 20 9 27 10 20 3 81 75 76 89 -5 12 32 32 41 23 2 -2 -17
-28 -41 -58 -25 -29 -54 -71 -65 -91 -42 -83 -42 -174 0 -119 11 13 17 28 14
32 -2 5 -1 8 4 7 14 -4 43 13 38 21 -3 5 -2 11 3 14 7 4 10 -11 15 -79 1 -11
9 -20 17 -20 8 0 14 6 12 13 -1 6 2 12 7 12 4 0 7 11 6 25 -2 14 2 25 9 25 18
0 27 108 13 163 -6 21 -4 27 9 27 50 0 201 -237 248 -391 l25 -82 -35 -34
c-33 -30 -38 -53 -12 -53 5 0 24 11 40 26 39 32 91 31 96 -2 4 -27 -22 -54
-53 -54 -14 0 -25 -7 -28 -20 -3 -11 -2 -20 1 -21 56 -6 74 -20 65 -48 -12
-33 -37 -51 -70 -51 -37 0 -37 -1 -23 34 7 19 6 29 -6 41 -20 20 -37 19 -57
-3 -24 -26 -21 -65 6 -90 19 -18 35 -22 90 -22 59 0 70 3 97 27 36 33 45 77
22 112 -11 18 -12 26 -3 29 19 6 38 55 32 82 -4 17 -20 31 -48 44 -38 18 -45
28 -92 131 -55 117 -160 293 -205 341 -14 16 -26 34 -26 41 0 6 -3 20 -7 30
-6 15 -4 16 9 6 8 -7 18 -10 22 -6 3 4 21 8 38 9 17 2 35 10 40 18 5 9 16 16
23 16 8 0 15 6 15 14 0 8 8 13 18 11 9 -1 22 2 29 7 7 6 35 11 63 12 27 1 53
5 57 9 3 4 1 7 -6 7 -7 0 -10 4 -6 9 10 17 -63 33 -108 25 -23 -4 -49 -7 -59
-5 -9 1 -19 -3 -23 -9 -8 -13 -25 -13 -25 0 0 6 8 10 17 10 9 0 14 3 11 6 -7
7 36 54 49 54 6 0 24 7 41 16 35 17 43 39 12 31 -11 -3 -20 -1 -20 4 0 13 -67
2 -92 -16 -25 -17 -42 -20 -33 -5 3 6 1 10 -6 10 -7 0 2 11 21 25 19 14 30 25
25 25 -4 0 2 9 14 19 13 11 20 24 17 30 -4 5 4 7 16 4 19 -4 20 -3 8 6 -13 9
-12 11 4 11 13 0 17 5 13 19 -3 13 1 21 12 24 20 6 -24 5 -64 0z m-160 -201
c-8 -8 -25 10 -19 20 4 6 9 5 15 -3 4 -7 6 -15 4 -17z m105 4 c0 -2 -7 -7 -16
-10 -8 -3 -12 -2 -9 4 6 10 25 14 25 6z m-184 -312 c-4 -9 -9 -15 -11 -12 -3
3 -3 13 1 22 4 9 9 15 11 12 3 -3 3 -13 -1 -22z m-15 -55 c-5 -13 -10 -19 -10
-12 -1 15 10 45 15 40 3 -2 0 -15 -5 -28z"/>
<path d="M605 1620 c-3 -5 -1 -10 4 -10 6 0 11 5 11 10 0 6 -2 10 -4 10 -3 0
-8 -4 -11 -10z"/>
<path d="M2187 1514 c-20 -13 -40 -24 -44 -23 -20 3 -24 -2 -13 -16 17 -20 11
-24 -36 -29 -21 -3 -42 -5 -46 -5 -10 -1 -47 -56 -63 -95 -13 -30 -13 -37 -1
-49 13 -12 13 -17 0 -36 -8 -11 -19 -21 -24 -21 -24 0 -127 -72 -144 -101 -24
-40 -28 -111 -10 -162 19 -53 18 -64 -6 -72 -44 -14 -62 -52 -40 -85 9 -13 11
-13 19 -1 6 9 6 22 1 32 -10 18 0 30 33 42 9 4 20 20 23 36 6 28 6 28 37 13
49 -24 69 -52 64 -87 -10 -58 -14 -68 -36 -91 -54 -57 -78 -154 -50 -207 25
-45 50 -58 112 -54 51 3 62 8 94 39 63 64 75 178 24 232 -30 32 -38 70 -33
146 4 60 7 67 33 82 16 10 39 33 50 53 16 26 28 35 43 33 12 -1 32 5 46 15 30
21 59 22 66 2 4 -8 12 -15 19 -15 19 0 48 38 42 54 -4 9 1 16 9 18 13 2 12 7
-5 27 -12 13 -21 29 -21 36 0 6 -11 17 -24 24 -19 11 -28 10 -54 -3 -37 -19
-53 -14 -75 24 -17 28 -17 29 3 35 11 3 20 11 20 16 0 5 6 9 14 9 8 0 13 7 12
16 0 10 11 21 31 28 37 13 59 32 26 22 -26 -8 -29 1 -8 27 14 20 11 63 -7 85
-25 30 -44 31 -81 6z m53 -39 c0 -8 -9 -19 -20 -25 -21 -11 -70 -4 -70 12 0 5
4 7 9 4 4 -3 17 1 27 9 25 19 54 19 54 0z m-212 -727 c27 -27 9 -144 -30 -185
-56 -60 -102 -2 -77 99 19 81 71 122 107 86z"/>
<path d="M1590 1417 c0 -9 5 -19 11 -23 21 -13 50 -95 51 -142 1 -161 -107
-297 -272 -342 -88 -24 -217 -17 -302 15 -10 4 -18 3 -18 -3 0 -9 64 -39 105
-49 120 -27 277 10 377 89 148 116 186 345 74 447 -21 19 -26 21 -26 8z"/>
<path d="M170 937 c-117 -55 -189 -246 -133 -353 30 -59 74 -84 145 -84 65 0
99 14 140 57 29 31 61 97 51 107 -16 16 -40 3 -51 -27 -18 -51 -63 -88 -114
-94 -86 -10 -115 51 -90 186 24 134 73 191 153 179 30 -4 64 -55 73 -107 4
-27 11 -39 21 -37 21 3 22 6 30 71 4 33 8 73 10 88 4 34 -20 48 -39 21 -13
-17 -15 -17 -49 0 -44 20 -93 18 -147 -7z"/>
<path d="M565 794 c-115 -39 -155 -211 -65 -281 19 -16 105 -17 133 -1 30 15
67 56 67 73 0 24 -22 29 -39 7 -22 -29 -67 -50 -95 -45 -27 5 -47 41 -40 70 5
17 14 19 94 18 58 -1 91 3 94 10 2 6 3 30 1 52 -7 88 -66 126 -150 97z m77
-58 c19 -43 5 -56 -57 -56 -55 0 -55 0 -44 23 32 61 80 77 101 33z"/>
<path d="M1217 795 c-51 -17 -76 -41 -99 -93 -47 -106 -5 -201 90 -202 76 0
140 53 158 130 27 120 -46 201 -149 165z m71 -47 c26 -26 6 -145 -31 -185 -25
-28 -63 -30 -77 -4 -21 41 -2 140 36 182 19 21 54 25 72 7z"/>
<path d="M1454 785 c-8 -20 4 -35 27 -35 11 0 18 -3 16 -7 -3 -5 -8 -30 -11
-58 -7 -50 -13 -84 -23 -117 -2 -11 -14 -18 -29 -18 -19 0 -24 -5 -24 -24 0
-24 1 -24 85 -24 81 1 86 3 83 22 -2 13 -12 22 -26 24 -18 3 -21 8 -16 24 5
18 11 41 13 58 1 6 100 4 106 -2 2 -2 0 -19 -4 -38 -5 -28 -12 -36 -34 -38
-18 -2 -27 -9 -27 -22 0 -24 13 -28 98 -27 69 0 72 1 72 24 0 17 -6 23 -23 23
l-23 0 17 98 c10 53 18 98 19 100 0 1 11 2 24 2 27 0 41 24 23 37 -16 12 -138
15 -156 4 -19 -12 -6 -41 19 -41 23 0 24 -7 10 -44 -8 -23 -15 -26 -60 -26
l-51 0 4 33 c3 26 8 33 31 35 21 3 27 8 24 25 -3 20 -9 22 -81 24 -59 1 -79
-2 -83 -12z"/>
<path d="M2200 785 c-15 -18 -5 -35 21 -35 22 0 22 3 -5 -135 -10 -50 -15 -60
-36 -65 -16 -4 -25 -13 -25 -25 0 -19 7 -20 105 -20 118 0 166 14 181 52 14
38 11 71 -8 82 -17 9 -16 11 4 33 24 26 30 53 20 85 -11 30 -29 35 -144 39
-78 3 -104 0 -113 -11z m188 -55 c4 -24 -20 -48 -55 -53 -35 -6 -39 3 -27 51
6 19 12 23 43 20 22 -2 37 -9 39 -18z m-23 -116 c24 -25 -2 -58 -49 -62 -38
-3 -43 5 -30 56 8 27 54 31 79 6z"/>
</g>
</svg>
