<?xml version="1.0" encoding="utf-8"?>
<!-- Generator: Adobe Illustrator 19.0.0, SVG Export Plug-In . SVG Version: 6.00 Build 0)  -->
<svg version="1.1" id="Layer_1" xmlns="http://www.w3.org/2000/svg" xmlns:xlink="http://www.w3.org/1999/xlink" x="0px" y="0px"
	 viewBox="-448 250.6 61.4 61.4" style="enable-background:new -448 250.6 61.4 61.4;" xml:space="preserve">
<style type="text/css">
	.st0{fill:#ff9a35;}
</style>
<path id="Forma_1" class="st0" d="M-398.2,301.6c-0.5,0-0.9,0.4-0.9,0.9v0v7.2c0,0.3-0.2,0.5-0.5,0.5h-4.8v-17.6
	c0-0.5-0.4-0.9-0.9-0.9c-0.5,0-0.9,0.4-0.9,0.9c0,0,0,0,0,0v17.6h-10.8v-12.4c0-0.5-0.4-0.9-0.9-0.9c-0.5,0-0.9,0.4-0.9,0.9
	c0,0,0,0,0,0v12.4h-3.6c-0.5,0-0.9,0.4-0.9,0.9c0,0.5,0.4,0.9,0.9,0.9c0,0,0,0,0,0h22.8c1.3,0,2.3-1,2.3-2.3v-7.2
	C-397.3,302-397.7,301.6-398.2,301.6z M-402,283.8L-402,283.8l-10.7-4.1V279h3.9c1.3,0,2.3-1,2.3-2.3v-6.5c1-1.4,1-3.2,0-4.6v-3.7
	c0-6.3-5.1-11.4-11.4-11.4c-6.3,0-11.4,5.1-11.4,11.4c0,0,0,0,0,0v14.8c0,1.3,1,2.3,2.3,2.3h3.9v0.6l-10.7,4.1l0,0
	c-2.9,1.3-4.7,4.1-4.7,7.3v18.6c0,1.3,1,2.3,2.3,2.3h9.6c0.5,0,0.9-0.4,0.9-0.9c0-0.5-0.4-0.9-0.9-0.9c0,0,0,0,0,0h-3v-17.6
	c0-0.5-0.4-0.9-0.9-0.9c-0.5,0-0.9,0.4-0.9,0.9c0,0,0,0,0,0v17.6h-4.8c-0.3,0-0.5-0.2-0.5-0.5v-18.6c0-2.4,1.4-4.6,3.6-5.6l6.4-2.5
	l2.8,5.7l0,0c0.2,0.4,0.5,0.6,0.9,0.8c-0.7,1.1-1.3,2.3-1.7,3.6c-0.3,0.7,0.1,1.5,0.8,1.8l2.6,1.1c0.7,0.3,1.6,0,1.9-0.8
	c0-0.1,0.1-0.2,0.1-0.3c0.3-1.3,0.8-2.6,1.4-3.9c0.6,1.2,1.1,2.5,1.4,3.9c0.1,0.4,0.4,0.8,0.7,1c0.4,0.2,0.8,0.2,1.2,0l2.6-1.1
	c0.7-0.3,1.1-1.1,0.8-1.8c-0.5-1.2-1-2.4-1.7-3.6c0.4-0.1,0.7-0.4,0.9-0.8l0,0l2.8-5.7l6.4,2.5c2.2,1,3.6,3.2,3.6,5.6v7.2
	c0,0.5,0.4,0.9,0.9,0.9c0.5,0,0.9-0.4,0.9-0.9c0,0,0,0,0,0v-7.2C-397.3,287.9-399.1,285.1-402,283.8z M-408.3,276.7
	c0,0.3-0.2,0.5-0.5,0.5h-3.8c1.7-1.3,2.8-3.3,3.1-5.5c0.4,0,0.8-0.1,1.2-0.2L-408.3,276.7L-408.3,276.7L-408.3,276.7z M-407.5,267.9
	c0,1-0.8,1.9-1.8,2v-4C-408.3,266-407.5,266.9-407.5,267.9L-407.5,267.9z M-426.9,277.2c-0.3,0-0.5-0.2-0.5-0.5v-14.8
	c0-5.3,4.3-9.6,9.6-9.6c5.3,0,9.6,4.3,9.6,9.6v2.4c-0.4-0.1-0.7-0.2-1.1-0.2c-0.1-0.6-0.5-1.1-1.1-1.3l0,0c-1.6-0.5-3-1.4-4.1-2.6
	c-0.6-0.6-1.6-0.6-2.2-0.1c-0.2,0.2-3.8,4.5-8.5,6.2c-0.6,0.2-1,0.8-1,1.5v2.8c0,2.6,1.2,5,3.2,6.6L-426.9,277.2L-426.9,277.2z
	 M-424.5,270.6V268c0.5-0.2,1-0.4,1.5-0.7c2.8-1.5,5.2-3.4,7.3-5.8c1.2,1.3,2.7,2.2,4.4,2.8l0.2,0.1v6.2c-0.1,3.7-3.1,6.6-6.8,6.6
	C-421.6,277.1-424.5,274.2-424.5,270.6L-424.5,270.6z M-414.5,278.4v1.6l-3.4,4.1l-3.4-4.2v-1.6c1.1,0.5,2.3,0.7,3.5,0.7
	C-416.6,279-415.5,278.8-414.5,278.4L-414.5,278.4z M-424.9,282.3l2.5-1l3.2,4l0,0l-3.1,2.2L-424.9,282.3z M-420.9,294l-1.9-0.8
	c0.5-1.4,1.2-2.7,2.1-3.9c0.3,0.4,0.8,0.7,1.2,0.9C-420.1,291.4-420.6,292.7-420.9,294L-420.9,294z M-417.8,288.8
	c-0.7,0-1.4-0.4-1.7-0.9l1.7-1.2l1.7,1.2C-416.5,288.4-417.1,288.8-417.8,288.8L-417.8,288.8z M-414.8,294c-0.3-1.3-0.8-2.6-1.4-3.8
	c0.5-0.2,0.9-0.5,1.2-0.9c0.9,1.2,1.6,2.5,2.2,3.9L-414.8,294z M-413.4,287.6l-3.2-2.2l3.2-4l2.5,1L-413.4,287.6z"/>
</svg>
