<?xml version="1.0" encoding="utf-8"?>
<!-- Generator: Adobe Illustrator 19.0.0, SVG Export Plug-In . SVG Version: 6.00 Build 0)  -->
<svg version="1.1" id="Layer_1" xmlns="http://www.w3.org/2000/svg" xmlns:xlink="http://www.w3.org/1999/xlink" x="0px" y="0px"
	 viewBox="-450 251 59 59" style="enable-background:new -450 251 59 59;" xml:space="preserve">
<style type="text/css">
	.st0{fill:#ff9a35;}
</style>
<path class="st0" d="M-391.2,275l-2.9-3.9c-0.2-0.2-0.5-0.4-0.8-0.4h-22.6v-10.8c1.2-0.9,2-2.4,2-3.9c0-1.3-0.5-2.6-1.4-3.5
	c-0.9-0.9-2.2-1.5-3.5-1.4h0c-2.7,0-4.9,2.2-4.9,4.9c0,1.6,0.7,3,2,3.9v3h-22.6c-0.3,0-0.6,0.1-0.8,0.4l-3,3.9
	c-0.3,0.3-0.3,0.8,0,1.2l3,3.9c0.2,0.2,0.5,0.4,0.8,0.4h22.6v5.9h-18.7c-0.3,0-0.6,0.1-0.8,0.4l-2.9,3.9c-0.3,0.3-0.3,0.8,0,1.2
	l2.9,3.9c0.2,0.2,0.5,0.4,0.8,0.4h18.7V309c0,0.5,0.4,1,1,1h3.9c0.5,0,1-0.4,1-1v-11.8h18.7c0.3,0,0.6-0.1,0.8-0.4l3-3.9
	c0.2-0.3,0.1-0.8,0-1.2l0,0l-3-3.9c-0.2-0.2-0.5-0.4-0.8-0.4h-18.7v-6.9h22.6c0.3,0,0.6-0.2,0.8-0.4l2.9-3.9
	C-390.9,275.8-390.9,275.3-391.2,275z M-423.5,270.7h-22.1l-2.2-2.9l2.2-2.9h22.1V270.7z M-443.8,283.5l2.2-2.9h18.2v5.9h-18.2
	L-443.8,283.5z M-421.5,308v-48.7c0-0.4-0.2-0.7-0.5-0.8c-0.9-0.5-1.5-1.5-1.5-2.6c0-1.6,1.3-2.9,2.9-2.9h0c1.6,0,2.9,1.3,2.9,3
	c0,1-0.6,2-1.5,2.5c-0.3,0.2-0.5,0.5-0.5,0.8V308H-421.5z M-399.4,289.4l2.2,2.9l-2.2,3h-18.2v-5.9H-399.4z M-395.4,278.5h-22.1
	v-5.9h22.1l2.2,2.9L-395.4,278.5z"/>
</svg>
