<svg xmlns="http://www.w3.org/2000/svg" viewBox="0 0 61.22 61.22">
    <style>
      .cls-1 {
        fill: #ff9a35;
      }
    </style>
  <path id="Forma_1" data-name="Forma 1" class="cls-1" d="M296.579,1268.38a0.984,0.984,0,0,0-1.02-.53l-5.215.81,0.8-5.22a0.978,0.978,0,0,0-1.657-.84l-6.054,6.06a0.93,0.93,0,0,0-.274.54l-0.959,6.21-3.465,3.47a25.662,25.662,0,1,0,3.349,3.77,0.978,0.978,0,0,0-1.581,1.15,23.816,23.816,0,1,1-3.151-3.54l-4.465,4.47a17.425,17.425,0,1,0,3.286,3.94,0.978,0.978,0,0,0-1.668,1.02,15.545,15.545,0,1,1-3-3.58l-4.475,4.48a9.211,9.211,0,1,0,3.041,4.52,0.977,0.977,0,1,0-1.871.56,7.285,7.285,0,1,1-6.976-5.18,7.2,7.2,0,0,1,4.414,1.49l-5.1,5.1a0.976,0.976,0,1,0,1.381,1.38l17.523-17.52c0.006,0,4.145-4.14,4.145-4.14l6.217-.96a0.956,0.956,0,0,0,.542-0.28l6.054-6.05A0.975,0.975,0,0,0,296.579,1268.38Zm-11.534,1.43,3.717-3.72-0.5,3.27-3.717,3.72Zm4.144,4.14-3.266.51,3.717-3.72,3.266-.5Z" transform="translate(-235.469 -1262.31)"/>
</svg>
