<?xml version="1.0" encoding="utf-8"?>
<!-- Generator: Adobe Illustrator 19.0.0, SVG Export Plug-In . SVG Version: 6.00 Build 0)  -->
<svg version="1.1" id="Layer_1" xmlns="http://www.w3.org/2000/svg" xmlns:xlink="http://www.w3.org/1999/xlink" x="0px" y="0px"
	 viewBox="-451 253.7 55.3 55.3" style="enable-background:new -451 253.7 55.3 55.3;" xml:space="preserve">
<style type="text/css">
	.st0{fill:#ff9a35;}
</style>
<path id="Forma_1" class="st0" d="M-430.5,268.2v-1.8c0.3,0,0.5,0.1,0.8,0.2c0.2,0.1,0.6,0.4,0.9-0.1c0-0.1,0.1-0.2,0.1-0.2
	c0.1-0.4-0.1-0.7-0.5-0.8c0,0-0.1,0-0.1,0c-0.4-0.1-0.8-0.2-1.1-0.2V265c0-0.2-0.2-0.3-0.4-0.3c-0.2,0-0.3,0.1-0.4,0.3v0.3
	c-0.8,0-1.5,0.5-1.8,1.2c-0.2,0.5-0.2,1.2,0,1.7c0.4,0.6,1.1,1.1,1.8,1.2v2.1c-0.5-0.1-1-0.3-1.3-0.7c-0.2-0.2-0.5-0.1-0.6,0
	c0,0,0,0.1-0.1,0.1c-0.2,0.3-0.2,0.7,0,0.9c0.5,0.6,1.3,0.9,2,0.8v0.3c0,0.2,0.2,0.3,0.4,0.3c0.2,0,0.3-0.1,0.4-0.2v-0.3
	c0.5-0.1,1-0.3,1.4-0.7c0.4-0.4,0.6-1,0.5-1.5C-428.5,269.2-429.4,268.6-430.5,268.2z M-431.1,268c-0.4,0-0.8-0.4-0.8-0.8
	c0-0.4,0.4-0.7,0.8-0.7V268L-431.1,268L-431.1,268z M-430.5,271.4v-1.8c0.5,0.1,0.8,0.5,0.8,1C-429.8,271-430.1,271.4-430.5,271.4
	L-430.5,271.4z M-416.7,256.6c-3.9,0-7,3.1-7,7c0,3.9,3.1,7,7,7c3.9,0,7-3.1,7-7c0,0,0,0,0,0C-409.7,259.7-412.8,256.6-416.7,256.6
	L-416.7,256.6z M-416.7,269c-3,0-5.4-2.4-5.4-5.4c0-3,2.4-5.4,5.4-5.4c3,0,5.4,2.4,5.4,5.4C-411.3,266.6-413.7,269-416.7,269
	L-416.7,269z M-416.2,262.9v-1.8c0.4,0,0.7,0.2,1,0.3c0.2,0.1,0.5,0,0.6-0.2c0,0,0,0,0,0c0.2-0.3,0.2-0.6-0.1-0.8
	c-0.5-0.3-1-0.5-1.6-0.4v-0.3c0-0.2-0.2-0.3-0.4-0.3c-0.2,0-0.3,0.1-0.4,0.3v0.3c-0.3,0-0.5,0.1-0.8,0.2c-0.8,0.3-1.3,1-1.3,1.8
	c0,1.2,0.9,1.7,2,2.1v2.1c-0.5-0.1-1-0.3-1.3-0.7c-0.2-0.2-0.5-0.1-0.6,0c0,0,0,0.1-0.1,0.1c-0.2,0.3-0.2,0.6,0,0.9
	c0.5,0.6,1.3,0.9,2,0.8v0.3c0,0.2,0.2,0.3,0.4,0.3c0.2,0,0.3-0.1,0.4-0.3v-0.3c1.1-0.1,2-1.1,2-2.2
	C-414.3,263.9-415.1,263.4-416.2,262.9L-416.2,262.9z M-416.8,262.7c-0.4,0-0.8-0.4-0.8-0.8c0-0.4,0.4-0.7,0.8-0.7V262.7z
	 M-416.3,266.1v-1.8c0.4,0.1,0.8,0.5,0.8,0.9C-415.5,265.7-415.9,266.1-416.3,266.1L-416.3,266.1z M-400.3,290.3
	c0.4,0,0.8-0.4,0.8-0.8c0,0,0,0,0,0v-13.2c0-1.2-0.9-2.1-2.1-2.1h-20.9c0.4-0.6,0.7-1.3,0.9-2c4.7,2.7,10.8,1.1,13.5-3.7
	c2.7-4.7,1.1-10.8-3.7-13.5c-4.7-2.7-10.8-1.1-13.5,3.7c-0.3,0.5-0.5,1.1-0.7,1.6c-1.5-0.9-3.2-1.3-4.9-1.3c-5.5,0-9.9,4.4-9.9,9.9
	c0,1.9,0.5,3.7,1.5,5.2h-5.5c-1.2,0-2.1,0.9-2.1,2.1v30.6c0,1.2,0.9,2.1,2.1,2.1h19.7c0.4,0,0.8-0.4,0.8-0.8c0-0.4-0.4-0.8-0.8-0.8
	h-19.7c-0.3,0-0.5-0.2-0.5-0.5v-30.6c0-0.3,0.2-0.5,0.5-0.5h43.2c0.3,0,0.5,0.2,0.5,0.5v9h-12.8c-3.5,0-6.3,2.8-6.3,6.3
	c0,3.5,2.8,6.3,6.3,6.3h12.8v9c0,0.3-0.2,0.5-0.5,0.5h-19.7c-0.4,0-0.8,0.4-0.8,0.8c0,0.4,0.4,0.8,0.8,0.8h19.7
	c1.2,0,2.1-0.9,2.1-2.1v-13.7c0-0.4-0.4-0.8-0.8-0.8c-0.4,0-0.8,0.4-0.8,0.8c0,0,0,0,0,0v3h-12.8c-2.6,0-4.7-2.1-4.7-4.7
	c0-2.6,2.1-4.7,4.7-4.7h12.8v2.6C-401.1,289.9-400.8,290.3-400.3,290.3C-400.3,290.3-400.3,290.3-400.3,290.3L-400.3,290.3z
	 M-437.3,274.2c-2.9-3.5-2.4-8.8,1.2-11.7c1.5-1.2,3.3-1.9,5.2-1.9c1.6,0,3.2,0.5,4.5,1.3c-0.1,0.5-0.1,1-0.1,1.5
	c-3.1-2.3-7.5-1.8-9.8,1.3c-2.2,2.9-1.8,7,0.8,9.4L-437.3,274.2L-437.3,274.2z M-429.7,274.2h-2.4c-2.9-0.7-4.7-3.6-4-6.5
	c0.6-2.4,2.7-4.2,5.2-4.2c2.1,0,4.1,1.3,4.9,3.2c0.3,0.7,0.5,1.4,0.5,2.2C-425.6,271.4-427.3,273.6-429.7,274.2L-429.7,274.2z
	 M-424.5,274.2h-1.8c1.2-1,2-2.4,2.2-4c0.3,0.4,0.7,0.7,1.1,1C-423.3,272.3-423.8,273.3-424.5,274.2L-424.5,274.2z M-424.9,263.6
	c0-4.6,3.7-8.3,8.3-8.3c4.6,0,8.3,3.7,8.3,8.3c0,4.6-3.7,8.3-8.3,8.3C-421.2,271.9-424.9,268.2-424.9,263.6L-424.9,263.6z
	 M-410.9,288.7h-2.8c-1.6,0-2.9,1.3-2.9,2.9s1.3,2.9,2.9,2.9h2.8c1.7,0,3.1-1.2,3.1-2.9C-407.7,289.9-409.1,288.5-410.9,288.7
	L-410.9,288.7z M-410.9,292.9h-2.8c-0.7,0-1.3-0.6-1.3-1.3s0.6-1.3,1.3-1.3h2.8c0.7,0,1.3,0.6,1.3,1.3
	C-409.6,292.3-410.2,292.9-410.9,292.9L-410.9,292.9z"/>
</svg>
