<?xml version="1.0" encoding="utf-8"?>
<!-- Generator: Adobe Illustrator 19.0.0, SVG Export Plug-In . SVG Version: 6.00 Build 0)  -->
<svg version="1.1" id="Layer_1" xmlns="http://www.w3.org/2000/svg" xmlns:xlink="http://www.w3.org/1999/xlink" x="0px" y="0px"
	 viewBox="-448 250.8 61.2 61.2" style="enable-background:new -448 250.8 61.2 61.2;" xml:space="preserve">
<style type="text/css">
	.st0{fill:#ff9a35;}
</style>
<path class="st0" d="M-391,260h-14.8v-1.1c0-2.9-2.4-5.3-5.3-5.3h-12.7c-2.9,0-5.3,2.4-5.3,5.3v1.1h-14.8c-2.3,0-4.2,1.9-4.2,4.2
	v35.9c0,2.3,1.9,4.2,4.2,4.2c0,1.5,1.1,2.7,2.6,2.7s2.7-1.1,2.7-2.6c0,0,0-0.1,0-0.1h42.2c0,1.5,1.2,2.6,2.6,2.6s2.6-1.2,2.6-2.6
	c2.3,0,4.2-1.9,4.2-4.2v-35.9C-386.8,261.9-388.7,260-391,260z M-426.9,258.9c0-1.7,1.4-3.2,3.2-3.2h12.7c1.7,0,3.2,1.4,3.2,3.2v1.1
	h-19V258.9z M-441.2,304.8c-0.3,0-0.5-0.2-0.5-0.5h1.1C-440.6,304.6-440.9,304.8-441.2,304.8L-441.2,304.8z M-393.7,304.8
	c-0.3,0-0.5-0.2-0.5-0.5h1.1C-393.1,304.6-393.4,304.8-393.7,304.8L-393.7,304.8z M-388.9,300.1c0,1.2-0.9,2.1-2.1,2.1h-6.3
	c0.3-3.5,2.6-6.5,5.8-7.9c0.5-0.2,0.8-0.9,0.5-1.4c-0.2-0.5-0.8-0.7-1.3-0.5c-4,1.7-6.8,5.5-7.2,9.8h-36c-0.3-4.4-3.1-8.2-7.2-9.8
	c-0.5-0.2-1.2,0.1-1.3,0.6c-0.2,0.5,0.1,1.1,0.5,1.3c3.3,1.3,5.5,4.4,5.8,7.9h-6.3c-1.2,0-2.1-0.9-2.1-2.1v-35.9
	c0-1.2,0.9-2.1,2.1-2.1h6.3c-0.4,3.4-2.6,6.4-5.8,7.7c-0.5,0.2-0.8,0.9-0.5,1.4c0.2,0.5,0.8,0.7,1.3,0.5c4-1.6,6.8-5.4,7.1-9.7h36
	c0.4,4.3,3.1,8,7.1,9.7c0.5,0.2,1.2,0,1.4-0.5c0.2-0.5,0-1.2-0.5-1.4c0,0-0.1,0-0.1,0c-3.2-1.3-5.4-4.3-5.8-7.7h6.3
	c1.2,0,2.1,0.9,2.1,2.1V300.1L-388.9,300.1z M-425.4,284.7c-0.6,0.2-0.8,0.8-0.7,1.3c0,0,0,0,0,0c0.8,2.2-0.4,4.6-2.6,5.4
	c-2.2,0.8-4.6-0.4-5.4-2.6c-0.8-2.2,0.4-4.6,2.6-5.4c0.4-0.2,0.9-0.2,1.4-0.2c0.5,0,1.1,0.1,1.6,0.3c0.5,0.2,1.2,0,1.4-0.5
	c0.2-0.5,0-1.2-0.5-1.4c0,0,0,0-0.1,0c-3.2-1.3-6.9,0.3-8.2,3.5c-1.3,3.2,0.3,6.9,3.5,8.2c3.2,1.3,6.9-0.3,8.2-3.5
	c0.6-1.4,0.6-3,0.1-4.4C-424.3,284.8-424.9,284.5-425.4,284.7C-425.4,284.7-425.4,284.7-425.4,284.7L-425.4,284.7z M-401.5,282.8
	c-0.2-0.5-0.8-0.8-1.4-0.6c0,0,0,0,0,0l-2,0.8c-0.5,0.2-0.8,0.8-0.6,1.4c0.2,0.5,0.8,0.8,1.4,0.6l1-0.4l2.4,5.9l-9.8,3.9l-2.4-5.9
	l4.9-2c0.5-0.2,0.8-0.8,0.6-1.4c-0.2-0.5-0.8-0.8-1.4-0.6l-5.9,2.4c-0.5,0.2-0.8,0.8-0.6,1.4l3.2,7.8c0.2,0.5,0.8,0.8,1.4,0.6
	l11.7-4.7c0.5-0.2,0.8-0.8,0.6-1.4L-401.5,282.8z M-427.8,275.1l15.8,5.9c0.3,0.1,0.6,0.1,0.8,0c0.3-0.1,0.5-0.3,0.5-0.6l2.2-5.9
	c0.2-0.5-0.1-1.2-0.6-1.4l-2-0.7c-0.6-0.2-1.2,0.1-1.3,0.7c-0.2,0.5,0.1,1.1,0.6,1.3l1,0.4l-1.5,4l-13.8-5.2l1.5-4l8.9,3.3
	c0.5,0.2,1.2-0.1,1.4-0.6c0.2-0.5-0.1-1.2-0.6-1.4l0,0l-9.9-3.7c-0.5-0.2-1.2,0.1-1.4,0.6l-2.2,5.9
	C-428.6,274.3-428.3,274.9-427.8,275.1L-427.8,275.1z"/>
</svg>
