<?xml version="1.0" encoding="utf-8"?>
<!-- Generator: Adobe Illustrator 19.0.0, SVG Export Plug-In . SVG Version: 6.00 Build 0)  -->
<svg version="1.1" id="Layer_1" xmlns="http://www.w3.org/2000/svg" xmlns:xlink="http://www.w3.org/1999/xlink" x="0px" y="0px"
	 viewBox="-448 250.6 61.4 61.4" style="enable-background:new -448 250.6 61.4 61.4;" xml:space="preserve">
<style type="text/css">
	.st0{fill:#ff9a35;}
</style>
<path id="Forma_1" class="st0" d="M-394.9,257h-7.5v-0.1h1.7c1.3,0,2.3-1,2.3-2.3v-1.6c0-1.3-1.1-2.3-2.3-2.3h-14.4
	c-0.5,0-0.9,0.4-0.9,0.9s0.4,0.9,0.9,0.9l0,0h14.4c0.3,0,0.5,0.2,0.5,0.5v1.6c0,0.3-0.2,0.5-0.5,0.5h-32.9c-0.3,0-0.5-0.2-0.5-0.5
	v-1.6c0-0.3,0.2-0.5,0.5-0.5h14.3c0.5,0,0.9-0.4,0.9-0.9s-0.4-0.9-0.9-0.9h-14.3c-1.3,0-2.3,1-2.3,2.3v1.6c0,1.3,1.1,2.3,2.3,2.3
	h1.7v0.1h-7.5c-1.7,0-3.1,1.4-3.1,3.1v14c0,7.1,5.8,12.8,12.8,12.8h3.8c1.1,0.8,2.2,1.4,3.5,1.9l-1.9,8.8h-7c-1.3,0-2.3,1-2.3,2.3
	v9.6c0,1.3,1,2.3,2.3,2.3h28.4c1.3,0,2.3-1,2.3-2.3v-2.7c0-0.5-0.4-0.9-0.9-0.9c-0.5,0-0.9,0.4-0.9,0.9v2.7c0,0.3-0.2,0.5-0.5,0.5
	h-28.4c-0.3,0-0.5-0.2-0.5-0.5V300c0-0.3,0.2-0.5,0.5-0.5h28.4c0.3,0,0.5,0.2,0.5,0.5v2.7c0,0.5,0.4,0.9,0.9,0.9
	c0.5,0,0.9-0.4,0.9-0.9V300c0-1.3-1.1-2.3-2.3-2.3h-7l-1.9-8.8c1.2-0.5,2.4-1.1,3.5-1.9h3.8c7.1,0,12.8-5.7,12.8-12.8v-14
	C-391.7,258.4-393.1,257-394.9,257z M-431.9,261.7v13.4c0,2.5,0.6,4.9,1.8,7.1c-4.3-0.2-7.8-3.7-7.8-8.1v-12.4H-431.9z
	 M-429.8,285.1c-6.1,0-11-4.9-11-11v-14c0-0.7,0.6-1.3,1.3-1.3h7.5v1.1h-6.9c-0.5,0-0.9,0.4-0.9,0.9l0,0v13.3c0,5.5,4.4,9.9,9.9,9.9
	h0.9c0.3,0.4,0.6,0.8,0.9,1.1L-429.8,285.1L-429.8,285.1z M-411.8,297.7h-10.8l1.8-8.3c1.2,0.3,2.4,0.4,3.6,0.4
	c1.2,0,2.4-0.2,3.6-0.4L-411.8,297.7z M-417.2,288c-7.2,0-12.9-5.8-13-12.9v-18.2h25.9v18.2C-404.2,282.2-410,288-417.2,288z
	 M-402.4,275.1v-13.4h6v12.4c0,4.4-3.5,7.9-7.8,8.1C-403.1,280-402.4,277.6-402.4,275.1z M-404.6,285.1h-1.8
	c0.3-0.4,0.6-0.7,0.9-1.1h0.9c5.5,0,9.9-4.4,9.9-9.9v-13.3c0-0.5-0.4-0.9-0.9-0.9c0,0,0,0,0,0h-6.9v-1.1h7.5c0.7,0,1.3,0.6,1.3,1.3
	v14l0,0C-393.6,280.2-398.5,285.1-404.6,285.1L-404.6,285.1z M-408.2,303.9h-17.9c-0.5,0-0.9,0.4-0.9,0.9s0.4,0.9,0.9,0.9h17.9
	c0.5,0,0.9-0.4,0.9-0.9C-407.3,304.3-407.7,303.9-408.2,303.9L-408.2,303.9z M-409.8,265.2l-4.6-0.7l-2-4.1
	c-0.2-0.4-0.8-0.6-1.2-0.4c-0.2,0.1-0.3,0.2-0.4,0.4l-2,4.1l-4.6,0.7c-0.5,0.1-0.8,0.5-0.8,1c0,0.2,0.1,0.4,0.3,0.5l3.3,3.2
	l-0.8,4.5c-0.1,0.5,0.2,1,0.7,1c0.2,0,0.4,0,0.6-0.1l4.1-2.1l4.1,2.1c0.4,0.2,1,0.1,1.2-0.4c0.1-0.2,0.1-0.4,0.1-0.6l-0.8-4.5
	l3.3-3.2c0.4-0.3,0.4-0.9,0-1.3C-409.4,265.3-409.6,265.2-409.8,265.2L-409.8,265.2z M-414.2,269c-0.2,0.2-0.3,0.5-0.3,0.8l0.5,3.2
	l-2.9-1.5c-0.3-0.1-0.6-0.1-0.8,0l-2.9,1.5l0.5-3.2c0-0.3,0-0.6-0.3-0.8l-2.3-2.3l3.2-0.5c0.3,0,0.5-0.2,0.7-0.5l1.4-2.9l1.4,2.9
	c0.1,0.3,0.4,0.5,0.7,0.5l3.2,0.5L-414.2,269z"/>
</svg>
