<svg xmlns="http://www.w3.org/2000/svg" viewBox="0 0 104.8008 164.5508">
<style type="text/css">
	.st0{fill:#ffffff;}
</style>
<path class="st0" d="M96.9141,48.8496c-3.9512-0.0605-7.6016,1.3848-10.4688,4.2051c-0.584,0.5742-1.13088,1.209-1.6445,1.8828
	V12.4004C84.8008,5.5625,79.2383,0,72.40041,0C65.5625,0,60,5.5625,60,12.4004v30.8887
	c-2.10159-1.6387-4.7344-2.6231-7.59959-2.6231c-4.67772,0-8.75591,2.6055-10.86921,6.4395
	c-2.2675-2.4746-5.5156-4.0391-9.13079-4.0391c-4.67771,0-8.75591,2.6055-10.86921,6.4395
	c-2.2675-2.4766-5.5156-4.0411-9.13079-4.0411C5.5625,45.4648,0,51.0273,0,57.8652v10.6856v16.4765v27.125
	c0,28.89261,23.5078,52.3985,52.40041,52.3985c28.89449,0,52.40038-23.50589,52.40038-52.3985V90.4766V68.5508V56.0742
	C104.8008,51.8984,101.55659,48.9277,96.9141,48.8496z M44.8008,53.0664c0-4.1914,3.4101-7.6016,7.59961-7.6016
	C56.5918,45.4648,60,48.875,60,53.0664v31.9609c0,4.1914-3.4082,7.6016-7.59959,7.6016c-4.18951,0-7.59961-3.4102-7.59961-7.6016
	V55.4648V53.0664z M24.8008,55.4648c0-4.1894,3.4101-7.5996,7.59961-7.5996C36.5918,47.8652,40,51.2754,40,55.4648v29.5625
	c0,4.1914-3.4082,7.6016-7.59959,7.6016c-4.18951,0-7.59961-3.4102-7.59961-7.6016V57.8652V55.4648z M4.8008,57.8652
	c0-4.1894,3.4101-7.5996,7.59961-7.5996C16.5918,50.2656,20,53.6758,20,57.8652v27.1621c0,4.1914-3.4082,7.6016-7.59959,7.6016
	c-4.18952,0-7.59961-3.4102-7.59961-7.6016V57.8652z M100,112.1523c0,26.24611-21.35159,47.59961-47.59959,47.59961
	c-26.24611,0-47.59961-21.3535-47.59961-47.59961V94.8047c2.1015,1.6367,4.7344,2.62299,7.59961,2.62299
	c4.10738,0,7.74218-2.0136,10-5.0976c2.25779,3.084,5.89449,5.0976,10,5.0976c4.10738,0,7.74218-2.0136,10-5.0976
	c2.25779,3.084,5.89449,5.0976,10,5.0976c6.83789,0,12.40038-5.5625,12.40038-12.4004V68.7715V53.0664v-40.666
	c0-4.1914,3.4101-7.6016,7.59962-7.6016C76.5918,4.7988,80,8.209,80,12.4004v56.1504c0,0.1426,0.0195,0.2812,0.043,0.416
	C80.0176,69.4687,80,69.9707,80,70.4766v23.7285c-14.18159,0.7285-27.457,7.8574-35.875,19.4043
	c-0.7813,1.0703-0.5469,2.5722,0.52341,3.3535c0.42778,0.3105,0.92188,0.4609,1.41208,0.4609c0.7422,0,1.4727-0.3418,1.9414-0.9863
	c7.9922-10.9609,20.8516-17.5039,34.39851-17.5039c1.32619,0,2.40038-1.0762,2.40038-2.4004V70.4766
	c0-5.5977,1.9199-10.961,5.0097-13.9981c1.9571-1.9238,4.3028-2.8691,7.0215-2.8301C98.01559,53.668,100,54.0098,100,56.0742
	v34.4024c0,0.2421,0.0469,0.4707,0.1133,0.6914L100,91.2031V112.1523z"/>
</svg>
