<svg xmlns="http://www.w3.org/2000/svg" xmlns:xlink="http://www.w3.org/1999/xlink" viewBox="0 0 22 22">
    <style>
      .cls-1 {
        fill:#059321;
      }
    </style>
  <path class="cls-1" d="M633.314,491.124H616.69a2.693,2.693,0,0,0-2.69,2.692v11.367a2.693,2.693,0,0,0,2.69,2.692h16.619A2.694,2.694,0,0,0,636,505.183V493.821A2.691,2.691,0,0,0,633.314,491.124Zm1.461,14.059a1.462,1.462,0,0,1-1.461,1.462H616.69a1.462,1.462,0,0,1-1.461-1.462V493.821a1.463,1.463,0,0,1,1.461-1.463h16.619a1.464,1.464,0,0,1,1.462,1.463v11.362h0Zm-6.9-5.825,5.381-4.827a0.616,0.616,0,0,0-.824-0.916l-7.42,6.663-1.447-1.293a0.022,0.022,0,0,1-.009-0.014,0.834,0.834,0,0,0-.1-0.086l-5.89-5.274a0.616,0.616,0,0,0-.819.92l5.444,4.868-5.421,5.078a0.618,0.618,0,0,0-.028.87,0.628,0.628,0,0,0,.451.2,0.619,0.619,0,0,0,.419-0.164l5.5-5.151,1.493,1.335a0.611,0.611,0,0,0,.819,0l1.534-1.375,5.472,5.2a0.608,0.608,0,0,0,.423.168,0.615,0.615,0,0,0,.424-1.061Z" transform="translate(-614 -488.5)"/>
</svg>
