<svg xmlns="http://www.w3.org/2000/svg" viewBox="0 0 21 21">
    <style>
      .cls-1 {
        fill:#059321;
      }
    </style>
  <path id="Forma_1" data-name="Forma 1" class="cls-1" d="M255.5,488a7.45,7.45,0,0,0-7.5,7.383,7.281,7.281,0,0,0,1.119,3.881l5.954,9.445a0.627,0.627,0,0,0,.531.291h0a0.626,0.626,0,0,0,.531-0.3l5.8-9.535A7.288,7.288,0,0,0,263,495.383,7.451,7.451,0,0,0,255.5,488Zm5.369,10.533L255.6,507.2l-5.413-8.586a6.074,6.074,0,0,1-.94-3.234,6.257,6.257,0,0,1,12.512,0A6.071,6.071,0,0,1,260.869,498.533Zm-5.369-6.842a3.692,3.692,0,1,0,3.75,3.692A3.725,3.725,0,0,0,255.5,491.691Zm0,6.161a2.47,2.47,0,1,1,2.5-2.469A2.49,2.49,0,0,1,255.5,497.852Z" transform="translate(-245 -488)"/>
</svg>
