<svg xmlns="http://www.w3.org/2000/svg" viewBox="-468 292 23 23">
<style type="text/css">
	.st0{fill:#059321;}
</style>
<path class="st0" d="M-462.8,307.1c2,2.5,4.6,4.6,7.4,6c1.3,0.7,2.7,1.1,4.2,1.3c0.1,0,0.2,0,0.3,0c1,0,2-0.4,2.7-1.2c0,0,0,0,0,0
	c0.3-0.3,0.5-0.6,0.8-0.9c0.2-0.2,0.4-0.4,0.6-0.6c0.9-0.8,0.9-2.3,0.1-3.1c0,0-0.1-0.1-0.1-0.1l-2.6-2.7c-0.4-0.4-0.9-0.7-1.5-0.7
	c-0.6,0-1.2,0.3-1.6,0.7l-1.6,1.6c-0.1-0.1-0.3-0.2-0.4-0.2c-0.2-0.1-0.3-0.2-0.5-0.3c-1.5-1-2.8-2.3-4-3.7c-0.5-0.7-1-1.4-1.3-2.2
	c0.4-0.4,0.8-0.8,1.2-1.2c0.1-0.1,0.3-0.3,0.4-0.4c0.4-0.4,0.7-1,0.7-1.6c0-0.6-0.3-1.2-0.7-1.6l-1.3-1.3c-0.2-0.2-0.3-0.3-0.4-0.5
	c-0.3-0.3-0.6-0.6-0.9-0.9c-0.4-0.4-1-0.7-1.5-0.7c-0.6,0-1.2,0.3-1.6,0.7l-1.6,1.7c-0.6,0.6-0.9,1.4-1,2.2
	c-0.1,1.2,0.1,2.5,0.6,3.6C-465.5,303.1-464.3,305.2-462.8,307.1z M-465.9,297.3c0-0.6,0.3-1.1,0.7-1.5l1.6-1.7
	c0.2-0.2,0.5-0.4,0.8-0.4c0.3,0,0.6,0.2,0.8,0.4c0.3,0.3,0.6,0.6,0.9,0.9c0.1,0.2,0.3,0.3,0.5,0.5l1.3,1.3c0.5,0.4,0.5,1,0.2,1.5
	c-0.1,0.1-0.1,0.1-0.2,0.2c-0.1,0.1-0.3,0.3-0.4,0.4c-0.4,0.4-0.8,0.8-1.2,1.2l0,0c-0.3,0.3-0.4,0.7-0.2,1c0,0,0,0,0,0
	c0.4,0.9,0.9,1.8,1.5,2.6c1.2,1.5,2.6,2.9,4.2,4c0.2,0.1,0.4,0.2,0.6,0.3c0.2,0.1,0.3,0.2,0.5,0.3c0,0,0,0,0,0
	c0.1,0.1,0.3,0.1,0.4,0.1c0.2,0,0.5-0.1,0.7-0.3l1.6-1.7c0.2-0.2,0.5-0.4,0.8-0.4c0.3,0,0.6,0.2,0.8,0.4l2.6,2.7
	c0.5,0.4,0.5,1.1,0.1,1.6c0,0-0.1,0.1-0.1,0.1c-0.2,0.2-0.4,0.4-0.6,0.6c-0.3,0.3-0.6,0.6-0.9,1c-0.5,0.5-1.2,0.8-1.9,0.8
	c-0.1,0-0.2,0-0.2,0c-1.3-0.1-2.6-0.5-3.8-1.2c-2.7-1.4-5.2-3.3-7.1-5.7c-1.5-1.8-2.6-3.8-3.5-5.9
	C-465.8,299.5-466,298.4-465.9,297.3L-465.9,297.3z"/>
</svg>
